<svg width="32" height="35" viewBox="0 0 32 35" fill="none" xmlns="http://www.w3.org/2000/svg">
<path d="M28.2353 0H3.76471C1.68552 0 0 1.78392 0 3.9845V28.1405C0 30.3411 1.68552 32.125 3.76471 32.125H28.2353C30.3145 32.125 32 30.3411 32 28.1405V3.9845C32 1.78392 30.3145 0 28.2353 0Z" fill="white"/>
<g filter="url(#filter0_d_19_24)">
<path d="M12.5291 4.06934H17.2575L19.3658 19.9771H19.426L21.5342 4.06934H26.2627V26.2957H23.1305V9.46717H23.0702L20.6608 26.2957H17.89L15.4806 9.46717H15.4203V26.2957H12.5291V4.06934Z" fill="#E7000B"/>
</g>
<path d="M13.5745 25.071C12.2314 25.4399 11.1032 25.319 10.1899 24.7086C9.29352 24.0934 8.66378 23.0509 8.30061 21.5812L5.80279 11.4722C5.43963 10.0024 5.50692 8.76855 6.00469 7.77055C6.51944 6.76788 7.44838 6.08212 8.79147 5.71326C10.1346 5.34441 11.2543 5.46754 12.1506 6.08268C13.064 6.69315 13.7022 7.73326 14.0654 9.20302L14.557 11.1926L11.9048 11.9209L11.3667 9.7432C11.0788 8.57814 10.4674 8.12403 9.53229 8.38082C8.59722 8.63762 8.27362 9.34854 8.56149 10.5136L11.159 21.026C11.4424 22.173 12.0517 22.6181 12.9867 22.3613C13.9218 22.1045 14.2476 21.4026 13.9642 20.2556L13.2533 17.3787L15.9055 16.6504L16.5632 19.312C16.9264 20.7819 16.8506 22.018 16.3358 23.0208C15.8381 24.0188 14.9176 24.702 13.5745 25.071Z" fill="white"/>
<mask id="mask0_19_24" style="mask-type:luminance" maskUnits="userSpaceOnUse" x="1" y="2" width="19" height="27">
<path d="M19.9138 2.04883H1.46875V28.5956H19.9138V2.04883Z" fill="white"/>
<path d="M13.5748 25.071C12.2317 25.4399 11.1035 25.319 10.1901 24.7086C9.29376 24.0934 8.66402 23.0509 8.30086 21.5812L5.80303 11.4722C5.43987 10.0024 5.50716 8.76855 6.00493 7.77055C6.51968 6.76788 7.44862 6.08212 8.79172 5.71326C10.1348 5.34441 11.2545 5.46754 12.1509 6.08268C13.0642 6.69315 13.7025 7.73326 14.0656 9.20302L14.5572 11.1926L11.905 11.9209L11.3669 9.7432C11.0791 8.57814 10.4676 8.12403 9.53254 8.38082C8.59746 8.63762 8.27386 9.34854 8.56173 10.5136L11.1592 21.026C11.4427 22.173 12.0519 22.6181 12.987 22.3613C13.922 22.1045 14.2479 21.4026 13.9644 20.2556L13.2536 17.3787L15.9058 16.6504L16.5635 19.312C16.9266 20.7819 16.8508 22.018 16.3361 23.0208C15.8383 24.0188 14.9179 24.702 13.5748 25.071Z" fill="black"/>
</mask>
<g mask="url(#mask0_19_24)">
<path d="M10.19 24.7084L9.67651 25.5401L9.68605 25.5464L10.19 24.7084ZM6.00482 7.77032L5.17704 7.298L5.17179 7.30853L6.00482 7.77032ZM12.1508 6.08245L11.6373 6.91409L11.6468 6.92048L12.1508 6.08245ZM14.5571 11.1923L14.7944 12.1525L15.7052 11.9024L15.4679 10.9422L14.5571 11.1923ZM11.9049 11.9207L10.9942 12.1708L11.2314 13.131L12.1422 12.8809L11.9049 11.9207ZM13.2535 17.3785L13.0162 16.4183L12.1055 16.6684L12.3427 17.6286L13.2535 17.3785ZM15.9057 16.6501L16.8165 16.4L16.5792 15.4398L15.6684 15.6899L15.9057 16.6501ZM16.3359 23.0205L15.5082 22.548L15.5029 22.5587L16.3359 23.0205ZM13.5747 25.0707L13.3374 24.1106C12.171 24.4309 11.3286 24.2946 10.694 23.8703L10.19 24.7084L9.68605 25.5464C10.8781 26.3432 12.2921 26.4484 13.8119 26.031L13.5747 25.0707ZM10.19 24.7084L10.7035 23.8767C10.0633 23.4375 9.5364 22.6457 9.21153 21.3309L8.30075 21.581L7.38997 21.831C7.79142 23.4557 8.52394 24.749 9.67651 25.5401L10.19 24.7084ZM8.30075 21.581L9.21153 21.3309L6.7137 11.2218L5.80292 11.472L4.89215 11.7221L7.38997 21.831L8.30075 21.581ZM5.80292 11.472L6.7137 11.2218C6.38884 9.90705 6.48238 8.94485 6.83786 8.23212L6.00482 7.77032L5.17179 7.30853C4.53175 8.59183 4.4907 10.0974 4.89215 11.7221L5.80292 11.472ZM6.00482 7.77032L6.83253 8.24263C7.19022 7.54594 7.86248 6.99357 9.02886 6.67324L8.79161 5.71304L8.55436 4.75284C7.03453 5.17022 5.84889 5.98936 5.17704 7.298L6.00482 7.77032ZM8.79161 5.71304L9.02886 6.67324C10.1965 6.35258 11.0243 6.49344 11.6373 6.91409L12.1508 6.08245L12.6642 5.25087C11.4845 4.44127 10.0729 4.33578 8.55436 4.75284L8.79161 5.71304ZM12.1508 6.08245L11.6468 6.92048C12.2995 7.35674 12.8313 8.14377 13.1548 9.45292L14.0655 9.20279L14.9763 8.95267C14.5735 7.32232 13.8287 6.02913 12.6547 5.24444L12.1508 6.08245ZM14.0655 9.20279L13.1548 9.45292L13.6463 11.4425L14.5571 11.1923L15.4679 10.9422L14.9763 8.95267L14.0655 9.20279ZM14.5571 11.1923L14.3199 10.2321L11.6677 10.9605L11.9049 11.9207L12.1422 12.8809L14.7944 12.1525L14.5571 11.1923ZM11.9049 11.9207L12.8157 11.6706L12.2776 9.49285L11.3668 9.74297L10.4561 9.9931L10.9942 12.1708L11.9049 11.9207ZM11.3668 9.74297L12.2776 9.49285C12.1059 8.79784 11.7966 8.13498 11.2344 7.71742C10.6399 7.27589 9.94666 7.24148 9.29518 7.4204L9.53243 8.3806L9.76968 9.3408C10.0533 9.26292 10.1333 9.32716 10.1503 9.33976C10.1995 9.37632 10.3399 9.52305 10.4561 9.9931L11.3668 9.74297ZM9.53243 8.3806L9.29518 7.4204C8.64368 7.59932 8.05452 7.9859 7.7399 8.6771C7.44234 9.33079 7.47912 10.0685 7.65085 10.7635L8.56162 10.5134L9.47242 10.2632C9.35626 9.7932 9.4109 9.59291 9.43696 9.53567C9.44594 9.51595 9.48611 9.41869 9.76968 9.3408L9.53243 8.3806ZM8.56162 10.5134L7.65085 10.7635L10.2483 21.2758L11.1591 21.0257L12.0699 20.7755L9.47242 10.2632L8.56162 10.5134ZM11.1591 21.0257L10.2483 21.2758C10.4185 21.9648 10.7279 22.6228 11.2925 23.0354C11.8866 23.4696 12.5771 23.499 13.2241 23.3214L12.9869 22.3611L12.7496 21.401C12.4615 21.48 12.3799 21.4155 12.3647 21.4044C12.32 21.3716 12.1831 21.2337 12.0699 20.7755L11.1591 21.0257ZM12.9869 22.3611L13.2241 23.3214C13.8711 23.1438 14.4602 22.7628 14.7779 22.0783C15.0798 21.4278 15.0453 20.6941 14.8751 20.0051L13.9643 20.2553L13.0535 20.5054C13.1667 20.9636 13.111 21.1545 13.0871 21.2059C13.079 21.2234 13.0377 21.3218 12.7496 21.401L12.9869 22.3611ZM13.9643 20.2553L14.8751 20.0051L14.1643 17.1284L13.2535 17.3785L12.3427 17.6286L13.0535 20.5054L13.9643 20.2553ZM13.2535 17.3785L13.4908 18.3387L16.1429 17.6103L15.9057 16.6501L15.6684 15.6899L13.0162 16.4183L13.2535 17.3785ZM15.9057 16.6501L14.9949 16.9003L15.6526 19.5619L16.5634 19.3118L17.4741 19.0617L16.8165 16.4L15.9057 16.6501ZM16.5634 19.3118L15.6526 19.5619C15.9761 20.8711 15.8761 21.8314 15.5082 22.548L16.3359 23.0205L17.1637 23.4929C17.8253 22.2039 17.877 20.6919 17.4741 19.0617L16.5634 19.3118ZM16.3359 23.0205L15.5029 22.5587C15.1625 23.2412 14.505 23.7899 13.3374 24.1106L13.5747 25.0707L13.8119 26.031C15.3305 25.6139 16.5139 24.7957 17.169 23.4823L16.3359 23.0205Z" fill="black"/>
</g>
<defs>
<filter id="filter0_d_19_24" x="8.52905" y="4.06934" width="21.7336" height="30.2266" filterUnits="userSpaceOnUse" color-interpolation-filters="sRGB">
<feFlood flood-opacity="0" result="BackgroundImageFix"/>
<feColorMatrix in="SourceAlpha" type="matrix" values="0 0 0 0 0 0 0 0 0 0 0 0 0 0 0 0 0 0 127 0" result="hardAlpha"/>
<feOffset dy="4"/>
<feGaussianBlur stdDeviation="2"/>
<feComposite in2="hardAlpha" operator="out"/>
<feColorMatrix type="matrix" values="0 0 0 0 0 0 0 0 0 0 0 0 0 0 0 0 0 0 0.2 0"/>
<feBlend mode="normal" in2="BackgroundImageFix" result="effect1_dropShadow_19_24"/>
<feBlend mode="normal" in="SourceGraphic" in2="effect1_dropShadow_19_24" result="shape"/>
</filter>
</defs>
</svg>
